<?xml version="1.0" encoding="utf-8"?>
<!-- Generator: Adobe Illustrator 16.0.5, SVG Export Plug-In . SVG Version: 6.00 Build 0)  -->
<!DOCTYPE svg PUBLIC "-//W3C//DTD SVG 1.1//EN" "http://www.w3.org/Graphics/SVG/1.1/DTD/svg11.dtd">
<svg version="1.1" id="Layer_1" xmlns="http://www.w3.org/2000/svg" xmlns:xlink="http://www.w3.org/1999/xlink" x="0px" y="0px"
	 width="562px" height="562px" viewBox="0 0 562 562" enable-background="new 0 0 562 562" xml:space="preserve">
<path fill="#32C1EF" d="M481.877,84.536c-2.863,3.823-6.467,7.864-10.832,12.182c-9.5,9.395-17.99,19.185-25.535,29.352
	c-5.499,7.411-10.501,15.021-14.99,22.838c-20.431,35.57-30.539,75.317-31.477,119.035c-0.628,29.539-6.63,56.967-28.525,78.615
	c-17.814,17.621-39.346,21.62-62.111,13.167c-5.018-1.864-8.812-4.252-11.65-7.044c-10.186-10.021-8.023-25.264-5.625-40.343
	c5.226-32.837-11.696-49.071-42.242-53.928c-12.292-1.956-24.787-2.633-37.171-4.037c-23.559-2.682-46.595-8.133-46.985-37.545
	c-0.363-27.463,12.722-48.681,41.143-55.073c15.584-3.515,32.094-2.908,37.138-3.3c90.576,6.862,129.244-47.249,164.764-104.509
	c4.05-6.525,8.096-12.408,12.497-17.051C379.219,13.422,331.679,0,281,0C125.808,0,0,125.809,0,281
	c0,92.239,44.445,174.097,113.086,225.33c23.113-50.396,32.828-102.755,16.402-160.394c-6.718-23.581-7.273-56.81,27.319-63.165
	c46.704-8.591,82.818,15.739,84.349,52.85c1.272,30.784,13.448,51.721,42.045,64.573c7.457,3.354,12.837,7.007,16.161,10.83
	c8.574,9.863,3.457,20.87-15.099,30.863c-42.203,22.747-74.59,53.449-90.736,100.091c-0.697,2.015-1.475,3.79-2.318,5.366
	C219.404,556.846,249.6,562,281,562c155.192,0,281-125.808,281-281C562,204.526,531.438,135.202,481.877,84.536z"/>
<path fill="none" d="M430.52,148.907l14.99-22.838C440.011,133.48,435.009,141.091,430.52,148.907z"/>
<g>
	<path fill="#636464" d="M472.361,93.95c0.667-0.694,1.318-1.383,1.944-2.062C473.679,92.567,473.028,93.256,472.361,93.95z"/>
	<path fill="#636464" d="M469.636,96.718c0.753-0.744,1.475-1.479,2.183-2.207C471.11,95.239,470.389,95.973,469.636,96.718z"/>
	<path fill="#636464" d="M478.93,86.515c0.323-0.404,0.637-0.805,0.943-1.204C479.566,85.71,479.253,86.11,478.93,86.515z"/>
	<path fill="#636464" d="M476.785,89.103c0.519-0.604,1.021-1.201,1.505-1.793C477.806,87.901,477.304,88.499,476.785,89.103z"/>
	<path fill="#636464" d="M474.763,91.383c0.483-0.531,0.953-1.059,1.412-1.582C475.716,90.324,475.246,90.851,474.763,91.383z"/>
	<path fill="#636464" d="M190.981,544.897c0.014-0.031,0.027-0.062,0.041-0.094C191.009,544.835,190.995,544.866,190.981,544.897z"
		/>
	<path fill="#636464" d="M190.417,546.13c0.002-0.003,0.003-0.005,0.004-0.008C190.42,546.125,190.419,546.127,190.417,546.13z"/>
	<path fill="#636464" d="M191.516,543.604c0.024-0.063,0.051-0.123,0.075-0.187C191.566,543.48,191.54,543.54,191.516,543.604z"/>
	<path fill="#636464" d="M476.175,89.801c0.204-0.233,0.41-0.467,0.61-0.698C476.585,89.334,476.379,89.567,476.175,89.801z"/>
	<path fill="#636464" d="M191.022,544.804c0.168-0.389,0.332-0.79,0.493-1.2C191.354,544.013,191.191,544.415,191.022,544.804z"/>
	<path fill="#636464" d="M429.11,148.907l14.99-22.838C438.602,133.48,433.6,141.091,429.11,148.907z"/>
	<path fill="#636464" d="M190.421,546.122c0.191-0.396,0.378-0.805,0.561-1.225C190.798,545.317,190.612,545.727,190.421,546.122z"
		/>
	<path fill="#636464" d="M191.591,543.417c0.18-0.467,0.356-0.944,0.527-1.438C191.947,542.472,191.771,542.951,191.591,543.417z"/>
	<path fill="#636464" d="M478.29,87.31c0.219-0.267,0.428-0.531,0.64-0.795C478.719,86.778,478.509,87.043,478.29,87.31z"/>
	<path fill="#636464" d="M474.306,91.888c0.155-0.17,0.303-0.336,0.457-0.505C474.609,91.552,474.461,91.718,474.306,91.888z"/>
	<path fill="#636464" d="M471.818,94.511c0.182-0.188,0.364-0.374,0.543-0.561C472.183,94.137,472,94.323,471.818,94.511z"/>
	<path fill="#636464" d="M189.8,547.345L189.8,547.345c0.21-0.393,0.416-0.797,0.617-1.215
		C190.216,546.548,190.01,546.952,189.8,547.345z"/>
	<path fill="#636464" d="M480.468,84.536c-0.191,0.256-0.396,0.517-0.595,0.774C480.071,85.053,480.276,84.793,480.468,84.536
		L480.468,84.536z"/>
	<path opacity="0.2" fill="#16657B" d="M437.479,513.47C511.785,462.905,560.591,377.655,560.591,281
		c0-76.474-30.562-145.798-80.123-196.464c-0.191,0.257-0.396,0.517-0.595,0.774c-0.307,0.399-0.62,0.8-0.943,1.204
		c-0.212,0.264-0.421,0.528-0.64,0.795c-0.484,0.592-0.986,1.189-1.505,1.793c-0.2,0.231-0.406,0.465-0.61,0.698
		c-0.459,0.523-0.929,1.051-1.412,1.582c-0.154,0.169-0.302,0.335-0.457,0.505c-0.626,0.68-1.277,1.368-1.944,2.062
		c-0.179,0.187-0.361,0.373-0.543,0.561c-0.708,0.729-1.43,1.463-2.183,2.207c-9.5,9.395-17.99,19.185-25.535,29.352l-14.99,22.838
		c-20.431,35.57-30.539,75.317-31.477,119.035c-0.628,29.539-6.63,56.967-28.525,78.615c-17.814,17.621-39.346,21.62-62.111,13.167
		c-5.018-1.864-8.812-4.252-11.65-7.044l-0.252,0.385L437.479,513.47z"/>
	<path opacity="0.2" fill="#16657B" d="M405.552,532.235L297.956,411.022l-0.003,0.002c8.574,9.863,3.457,20.87-15.099,30.863
		c-42.203,22.747-74.59,53.449-90.736,100.091c-0.171,0.494-0.348,0.972-0.527,1.438c-0.024,0.063-0.051,0.123-0.075,0.187
		c-0.161,0.41-0.325,0.812-0.493,1.2c-0.014,0.031-0.027,0.062-0.041,0.094c-0.183,0.42-0.369,0.828-0.561,1.225
		c-0.001,0.003-0.002,0.005-0.004,0.008c-0.201,0.418-0.407,0.822-0.617,1.215C217.995,556.846,248.19,562,279.591,562
		C324.883,562,367.663,551.269,405.552,532.235z"/>
</g>
</svg>
